<svg width="600" height="200" viewBox="0 0 600 200" fill="none" xmlns="http://www.w3.org/2000/svg">
<path d="M291.5 131.479V69.386C291.5 68.3234 291.861 67.41 292.583 66.646C293.305 65.882 294.195 65.5 295.251 65.5H310.011C312.571 65.5 314.98 66.0174 317.238 67.0523C319.503 68.0872 321.472 69.4867 323.146 71.2509C324.82 73.0081 326.143 75.0675 327.114 77.429C328.079 79.7905 328.562 82.3291 328.562 85.0448C328.562 87.7536 328.079 90.2956 327.114 92.671C326.143 95.0533 324.82 97.1231 323.146 98.8803C321.472 100.638 319.503 102.034 317.238 103.069C314.98 104.11 312.571 104.631 310.011 104.631H298.934V131.479C298.934 132.549 298.573 133.466 297.851 134.23C297.129 134.994 296.262 135.376 295.251 135.376C294.195 135.376 293.305 134.987 292.583 134.209C291.861 133.431 291.5 132.521 291.5 131.479ZM298.934 73.2825V96.755H310.011C311.508 96.755 312.936 96.4459 314.294 95.8278C315.66 95.2096 316.848 94.3657 317.859 93.2961C318.863 92.2334 319.657 90.9937 320.242 89.5768C320.832 88.1668 321.128 86.6562 321.128 85.0448C321.128 83.4543 320.832 81.9401 320.242 80.5024C319.657 79.0577 318.863 77.804 317.859 76.7414C316.848 75.6718 315.66 74.8279 314.294 74.2097C312.936 73.5916 311.508 73.2825 310.011 73.2825H298.934ZM326.563 112.58C326.563 109.441 327.134 106.489 328.276 103.725C329.418 100.954 330.964 98.5365 332.914 96.4737C334.864 94.4178 337.151 92.7821 339.777 91.5667C342.409 90.3581 345.196 89.7539 348.136 89.7539C350.749 89.7539 353.263 90.2435 355.679 91.2229C358.088 92.2022 360.261 93.5705 362.197 95.3277V93.6503C362.197 92.5807 362.565 91.6639 363.3 90.8999C364.035 90.1359 364.921 89.7539 365.958 89.7539C366.963 89.7539 367.833 90.1359 368.568 90.8999C369.303 91.6639 369.67 92.5807 369.67 93.6503V131.479C369.67 132.549 369.303 133.466 368.568 134.23C367.833 134.994 366.963 135.376 365.958 135.376C364.895 135.376 364.002 134.987 363.28 134.209C362.558 133.431 362.197 132.521 362.197 131.479V129.792C360.234 131.549 358.062 132.921 355.679 133.907C353.296 134.886 350.782 135.376 348.136 135.376C345.169 135.376 342.376 134.768 339.757 133.553C337.145 132.344 334.864 130.701 332.914 128.625C330.964 126.548 329.418 124.141 328.276 121.405C327.134 118.668 326.563 115.727 326.563 112.58ZM333.997 112.58C333.997 114.657 334.371 116.598 335.12 118.404C335.868 120.203 336.889 121.78 338.182 123.134C339.481 124.489 340.981 125.548 342.682 126.312C344.382 127.076 346.2 127.458 348.136 127.458C350.099 127.458 351.931 127.076 353.631 126.312C355.337 125.548 356.831 124.489 358.111 123.134C359.391 121.78 360.392 120.203 361.114 118.404C361.836 116.598 362.197 114.657 362.197 112.58C362.197 110.511 361.836 108.58 361.114 106.788C360.392 105.003 359.391 103.433 358.111 102.079C356.831 100.724 355.337 99.6443 353.631 98.8387C351.931 98.026 350.099 97.6197 348.136 97.6197C346.174 97.6197 344.349 98.026 342.662 98.8387C340.975 99.6443 339.481 100.724 338.182 102.079C336.889 103.433 335.868 105.01 335.12 106.809C334.371 108.615 333.997 110.538 333.997 112.58ZM379.852 112.58C379.852 109.441 380.423 106.489 381.565 103.725C382.707 100.954 384.253 98.5365 386.203 96.4737C388.152 94.4178 390.44 92.7821 393.066 91.5667C395.698 90.3581 398.484 89.7539 401.425 89.7539C404.399 89.7539 407.179 90.3581 409.765 91.5667C412.351 92.7821 414.626 94.4178 416.589 96.4737C418.551 98.5365 420.104 100.961 421.246 103.746C422.388 106.524 422.959 109.469 422.959 112.58C422.959 115.727 422.388 118.668 421.246 121.405C420.104 124.141 418.551 126.548 416.589 128.625C414.626 130.701 412.351 132.344 409.765 133.553C407.179 134.768 404.399 135.376 401.425 135.376C398.458 135.376 395.665 134.768 393.046 133.553C390.433 132.344 388.152 130.701 386.203 128.625C384.253 126.548 382.707 124.141 381.565 121.405C380.423 118.668 379.852 115.727 379.852 112.58ZM387.286 112.58C387.286 114.657 387.66 116.598 388.408 118.404C389.157 120.203 390.177 121.78 391.47 123.134C392.77 124.489 394.27 125.548 395.97 126.312C397.67 127.076 399.489 127.458 401.425 127.458C403.388 127.458 405.219 127.076 406.919 126.312C408.626 125.548 410.119 124.489 411.399 123.134C412.68 121.78 413.681 120.203 414.403 118.404C415.125 116.598 415.486 114.657 415.486 112.58C415.486 110.511 415.112 108.58 414.363 106.788C413.615 105.003 412.614 103.433 411.36 102.079C410.106 100.724 408.613 99.6443 406.88 98.8387C405.154 98.026 403.335 97.6197 401.425 97.6197C399.462 97.6197 397.638 98.026 395.951 98.8387C394.264 99.6443 392.77 100.724 391.47 102.079C390.177 103.433 389.157 105.01 388.408 106.809C387.66 108.615 387.286 110.538 387.286 112.58ZM456.023 69.386C456.023 68.3234 456.391 67.41 457.126 66.646C457.861 65.882 458.721 65.5 459.706 65.5H494.277C495.281 65.5 496.144 65.882 496.866 66.646C497.588 67.41 497.949 68.3234 497.949 69.386C497.949 70.5112 497.588 71.4419 496.866 72.1782C496.144 72.9144 495.281 73.2825 494.277 73.2825H480.708V131.479C480.708 132.549 480.347 133.466 479.625 134.23C478.903 134.994 478.037 135.376 477.026 135.376C475.962 135.376 475.07 134.987 474.347 134.209C473.632 133.431 473.274 132.521 473.274 131.479V73.2825H459.706C458.695 73.2825 457.829 72.9144 457.106 72.1782C456.384 71.4419 456.023 70.5112 456.023 69.386ZM496.846 117.56V94.0775C496.846 92.9523 497.208 92.0077 497.93 91.2437C498.652 90.4797 499.544 90.0977 500.608 90.0977C501.619 90.0977 502.485 90.4797 503.207 91.2437C503.929 92.0077 504.29 92.9523 504.29 94.0775V117.56C504.29 118.915 504.527 120.182 504.999 121.363C505.478 122.544 506.135 123.582 506.969 124.478C507.796 125.367 508.767 126.058 509.883 126.551C510.999 127.045 512.197 127.291 513.477 127.291C514.705 127.291 515.876 127.045 516.992 126.551C518.115 126.058 519.096 125.367 519.936 124.478C520.783 123.582 521.459 122.544 521.965 121.363C522.464 120.182 522.713 118.915 522.713 117.56V94.0775C522.713 92.9523 523.074 92.0077 523.796 91.2437C524.518 90.4797 525.385 90.0977 526.395 90.0977C527.406 90.0977 528.273 90.4797 528.995 91.2437C529.717 92.0077 530.078 92.9523 530.078 94.0775V117.56C530.078 119.977 529.642 122.269 528.768 124.437C527.895 126.597 526.711 128.468 525.214 130.052C523.711 131.636 521.951 132.889 519.936 133.813C517.921 134.737 515.768 135.199 513.477 135.199C511.193 135.199 509.036 134.737 507.008 133.813C504.973 132.889 503.201 131.636 501.691 130.052C500.181 128.468 498.996 126.597 498.136 124.437C497.276 122.269 496.846 119.977 496.846 117.56ZM542.169 78.5125C542.169 77.04 542.658 75.8141 543.637 74.8348C544.621 73.8555 545.78 73.3658 547.112 73.3658C548.504 73.3658 549.676 73.8555 550.627 74.8348C551.579 75.8141 552.055 77.04 552.055 78.5125C552.055 79.9224 551.566 81.1483 550.588 82.1902C549.61 83.2251 548.451 83.7425 547.112 83.7425C545.78 83.7425 544.621 83.2251 543.637 82.1902C542.658 81.1483 542.169 79.9224 542.169 78.5125ZM543.44 131.479V93.6503C543.44 92.5807 543.801 91.6639 544.523 90.8999C545.245 90.1359 546.108 89.7539 547.112 89.7539C548.123 89.7539 549.003 90.1359 549.751 90.8999C550.499 91.6639 550.874 92.5807 550.874 93.6503V131.479C550.874 132.549 550.499 133.466 549.751 134.23C549.003 134.994 548.123 135.376 547.112 135.376C546.108 135.376 545.245 134.987 544.523 134.209C543.801 133.431 543.44 132.521 543.44 131.479Z" fill="white"/>
<path fill-rule="evenodd" clip-rule="evenodd" d="M189.722 60.2985L206.748 56.1281C207.6 55.9195 208.467 56.4456 208.677 57.2974L208.997 58.6051C209.205 59.4574 208.679 60.325 207.827 60.5339L190.801 64.7039C189.949 64.9129 189.082 64.3864 188.872 63.5342L188.552 62.2269C188.344 61.3746 188.869 60.5066 189.722 60.2985Z" fill="#ED1C24"/>
<path d="M189.718 60.4333L206.698 56.1392C207.547 55.9246 208.421 56.4226 208.641 57.246L208.978 58.5104C209.197 59.3343 208.68 60.184 207.831 60.3992L190.852 64.6926C190.001 64.908 189.128 64.4095 188.908 63.5854L188.571 62.3216C188.353 61.4975 188.868 60.6476 189.718 60.4333Z" stroke="#231F20" stroke-width="5.243" stroke-miterlimit="22.9256" stroke-linecap="round" stroke-linejoin="round"/>
<path fill-rule="evenodd" clip-rule="evenodd" d="M93.6502 96.2495C93.3667 97.4712 93.1747 98.6555 93.0678 99.8035C88.3095 99.4958 71.7771 96.3835 63.7789 112.735C63.7789 112.735 74.5258 96.3597 94.2619 108.551C107.521 119.133 111.809 123.464 135.165 123.464H145.501C146.233 112.254 155.557 103.387 166.953 103.387C178.108 103.387 187.277 111.881 188.348 122.755C190.278 121.893 192.363 119.989 192.363 115.777C192.363 107.935 186.443 89.4845 186.443 89.4845H130.014C126.862 89.4845 139.624 101.785 137.779 109.473C135.844 117.533 97.2064 120.014 102.491 92.56C105.643 76.1847 115.099 65.9593 121.479 65.9593C121.69 65.9593 121.892 65.9538 122.086 65.9435H127.706V61.0392H121.479C105.03 60.8285 96.6398 83.3712 93.6502 96.2495Z" fill="#FBB809"/>
<path d="M93.6502 96.2495C93.3667 97.4712 93.1747 98.6555 93.0678 99.8035C88.3095 99.4958 71.7771 96.3835 63.7789 112.735C63.7789 112.735 74.5258 96.3597 94.2619 108.551C107.521 119.133 111.809 123.464 135.165 123.464H145.501C146.233 112.254 155.557 103.387 166.953 103.387C178.108 103.387 187.277 111.881 188.348 122.755C190.278 121.893 192.363 119.989 192.363 115.777C192.363 107.935 186.443 89.4845 186.443 89.4845H130.014C126.862 89.4845 139.624 101.785 137.779 109.473C135.844 117.533 97.2064 120.014 102.491 92.56C105.643 76.1847 115.099 65.9593 121.479 65.9593C121.69 65.9593 121.892 65.9538 122.086 65.9435H127.706V61.0392H121.479C105.03 60.8285 96.6398 83.3712 93.6502 96.2495Z" stroke="#231F20" stroke-width="5.23017" stroke-miterlimit="22.9256" stroke-linecap="round" stroke-linejoin="round"/>
<path fill-rule="evenodd" clip-rule="evenodd" d="M92.9193 53.995C92.7209 54.6531 92.0816 58.6792 92.2058 64.821C110.133 73.3335 114.032 48.2341 92.9193 53.995Z" fill="#D3D2D2"/>
<path d="M92.9193 53.995C92.7209 54.6531 92.0816 58.6792 92.2058 64.821C110.133 73.3335 114.032 48.2341 92.9193 53.995Z" stroke="#231F20" stroke-width="5.23017" stroke-miterlimit="22.9256" stroke-linecap="round" stroke-linejoin="round"/>
<path fill-rule="evenodd" clip-rule="evenodd" d="M80.2338 108.589C89.235 108.589 96.5321 115.886 96.5321 124.887C96.5321 133.888 89.235 141.185 80.2338 141.185C71.2326 141.185 63.9355 133.888 63.9355 124.887C63.9355 115.886 71.2326 108.589 80.2338 108.589Z" fill="#231F20"/>
<path fill-rule="evenodd" clip-rule="evenodd" d="M166.953 108.589C175.954 108.589 183.251 115.886 183.251 124.887C183.251 133.888 175.954 141.185 166.953 141.185C157.952 141.185 150.655 133.888 150.655 124.887C150.655 115.886 157.952 108.589 166.953 108.589Z" fill="#231F20"/>
<path fill-rule="evenodd" clip-rule="evenodd" d="M129.475 77.6844H154.46C156.638 77.6844 158.42 79.4659 158.42 81.6437C158.42 83.8216 156.638 85.603 154.46 85.603H129.475C127.297 85.603 125.515 83.8216 125.515 81.6437C125.515 79.4659 127.297 77.6844 129.475 77.6844Z" fill="#D3D2D2"/>
<path d="M129.475 77.6844H154.46C156.638 77.6844 158.42 79.4659 158.42 81.6437C158.42 83.8216 156.638 85.603 154.46 85.603H129.475C127.297 85.603 125.515 83.8216 125.515 81.6437C125.515 79.4659 127.297 77.6844 129.475 77.6844Z" stroke="#231F20" stroke-width="5.23017" stroke-miterlimit="22.9256" stroke-linecap="round" stroke-linejoin="round"/>
<path fill-rule="evenodd" clip-rule="evenodd" d="M175.039 49.8883L193.878 58.9631C195.439 59.7154 196.102 61.6084 195.35 63.1702L187.676 79.1011C186.924 80.6629 185.03 81.3249 183.468 80.5727L164.629 71.4975C163.067 70.7454 162.405 68.8523 163.158 67.2904L170.831 51.36C171.583 49.7981 173.476 49.1358 175.039 49.8883Z" fill="#ED1C24"/>
<path d="M175.193 49.9113L193.898 59.1362C195.449 59.9002 196.092 61.7921 195.327 63.3399L187.524 79.127C186.76 80.6747 184.865 81.315 183.314 80.5502L164.609 71.3244C163.059 70.5597 162.416 68.6679 163.181 67.1203L170.983 51.3339C171.747 49.7868 173.642 49.1457 175.193 49.9113Z" stroke="#231F20" stroke-width="5.23653" stroke-miterlimit="22.9256" stroke-linecap="round" stroke-linejoin="round"/>
<path d="M183.596 137.497H257.707" stroke="#231F20" stroke-width="5.23017" stroke-miterlimit="22.9256" stroke-linecap="round" stroke-linejoin="round"/>
<path d="M195.897 122.429H237.411" stroke="#231F20" stroke-width="5.23017" stroke-miterlimit="22.9256" stroke-linecap="round" stroke-linejoin="round"/>
<path d="M201.432 106.899H279.233" stroke="#231F20" stroke-width="5.23017" stroke-miterlimit="22.9256" stroke-linecap="round" stroke-linejoin="round"/>
<path d="M197.127 91.985H255.862" stroke="#231F20" stroke-width="5.23017" stroke-miterlimit="22.9256" stroke-linecap="round" stroke-linejoin="round"/>
<path fill-rule="evenodd" clip-rule="evenodd" d="M190.971 60.7339C191.815 60.7339 192.498 61.4176 192.498 62.2609C192.498 63.1042 191.815 63.7879 190.971 63.7879C190.128 63.7879 189.444 63.1042 189.444 62.2609C189.444 61.4176 190.128 60.7339 190.971 60.7339Z" fill="#231F20"/>
<path fill-rule="evenodd" clip-rule="evenodd" d="M203.742 73.8847L216.236 68.0626C216.756 67.8204 217.38 68.0477 217.623 68.5683L220.976 75.7616C221.217 76.2826 220.991 76.9067 220.47 77.1493L207.976 82.9714C207.456 83.2137 206.832 82.9864 206.589 82.4657L203.236 75.2725C202.993 74.7518 203.221 74.1274 203.742 73.8847Z" fill="#E9E8E8"/>
<path d="M203.742 73.8847L216.236 68.0626C216.756 67.8204 217.38 68.0477 217.623 68.5683L220.976 75.7616C221.217 76.2826 220.991 76.9067 220.47 77.1493L207.976 82.9714C207.456 83.2137 206.832 82.9864 206.589 82.4657L203.236 75.2725C202.993 74.7518 203.221 74.1274 203.742 73.8847Z" stroke="#231F20" stroke-width="1.74342" stroke-miterlimit="22.9256" stroke-linecap="round" stroke-linejoin="round"/>
<path d="M203.301 74.2739L212.546 76.4635L216.97 68.0085" stroke="#231F20" stroke-width="1.74342" stroke-miterlimit="22.9256" stroke-linecap="round" stroke-linejoin="round"/>
<path d="M207.145 82.9922L210.253 76.04" stroke="#231F20" stroke-width="1.74342" stroke-miterlimit="22.9256" stroke-linecap="round" stroke-linejoin="round"/>
<path d="M221.023 76.5257L213.621 74.4108" stroke="#231F20" stroke-width="1.74342" stroke-miterlimit="22.9256" stroke-linecap="round" stroke-linejoin="round"/>
<path fill-rule="evenodd" clip-rule="evenodd" d="M227.635 71.0973L235.845 72.4566L239.248 60.4296L233.767 59.5224L228.29 58.6153L227.635 71.0973Z" fill="#AA7E23"/>
<path d="M227.635 71.0973L235.845 72.4566L239.248 60.4296L233.767 59.5224L228.29 58.6153L227.635 71.0973Z" stroke="#231F20" stroke-width="1.74336" stroke-miterlimit="22.9256" stroke-linecap="round" stroke-linejoin="round"/>
<path fill-rule="evenodd" clip-rule="evenodd" d="M229.577 55.0196L239.216 56.6154L239.383 58.3089L234.111 57.4358L228.848 56.5644L229.577 55.0196Z" fill="#AA7E23"/>
<path d="M229.577 55.0196L239.216 56.6154L239.383 58.3089L234.111 57.4358L228.848 56.5644L229.577 55.0196Z" stroke="#231F20" stroke-width="1.74336" stroke-miterlimit="22.9256" stroke-linecap="round" stroke-linejoin="round"/>
<path fill-rule="evenodd" clip-rule="evenodd" d="M227.904 56.4081C229.975 56.7509 232.043 57.0935 234.112 57.4358C236.18 57.7784 238.25 58.1211 240.32 58.4638C240.56 58.5034 240.783 58.7426 240.815 58.9934C240.842 59.2067 240.871 59.419 240.899 59.6319C240.926 59.8435 240.952 60.0559 240.979 60.2687C241.012 60.5199 240.822 60.6902 240.559 60.6468C238.294 60.2717 236.031 59.8971 233.767 59.5225C231.505 59.1479 229.241 58.7728 226.978 58.3983C226.715 58.3548 226.591 58.1322 226.702 57.9048C226.797 57.712 226.891 57.52 226.984 57.3281C227.078 57.1352 227.174 56.9437 227.269 56.7509C227.38 56.5231 227.665 56.3686 227.904 56.4081Z" fill="#695528"/>
<path d="M227.904 56.4081C229.975 56.7509 232.043 57.0935 234.112 57.4358C236.18 57.7784 238.25 58.1211 240.32 58.4638C240.56 58.5034 240.783 58.7426 240.815 58.9934C240.842 59.2067 240.871 59.419 240.899 59.6319C240.926 59.8435 240.952 60.0559 240.979 60.2687C241.012 60.5199 240.822 60.6902 240.559 60.6468C238.294 60.2717 236.031 59.8971 233.767 59.5225C231.505 59.1479 229.241 58.7728 226.978 58.3983C226.715 58.3548 226.591 58.1322 226.702 57.9048C226.797 57.712 226.891 57.52 226.984 57.3281C227.078 57.1352 227.174 56.9437 227.269 56.7509C227.38 56.5231 227.665 56.3686 227.904 56.4081Z" stroke="#231F20" stroke-width="1.74337" stroke-miterlimit="22.9256" stroke-linecap="round" stroke-linejoin="round"/>
<path fill-rule="evenodd" clip-rule="evenodd" d="M80.2338 118.271C83.8879 118.271 86.8503 121.233 86.8503 124.887C86.8503 128.541 83.8879 131.503 80.2338 131.503C76.5797 131.503 73.6178 128.541 73.6178 124.887C73.6178 121.233 76.5797 118.271 80.2338 118.271Z" fill="white"/>
<path fill-rule="evenodd" clip-rule="evenodd" d="M166.953 118.271C170.607 118.271 173.569 121.233 173.569 124.887C173.569 128.541 170.607 131.503 166.953 131.503C163.299 131.503 160.337 128.541 160.337 124.887C160.337 121.233 163.299 118.271 166.953 118.271Z" fill="white"/>
</svg>
